<svg xmlns="http://www.w3.org/2000/svg" viewBox="0 0 100 100" width="1024" height="1024">
  <defs>
    <clipPath id="sq"><path d="M 22,0 L 78,0 C 95.6,0 100,4.4 100,22 L 100,78 C 100,95.6 95.6,100 78,100 L 22,100 C 4.4,100 0,95.6 0,78 L 0,22 C 0,4.4 4.4,0 22,0 Z"></path></clipPath>
    <radialGradient id="bg" cx="0.25" cy="0.2" r="1.1">
      <stop offset="0" stop-color="#9290ff"></stop><stop offset="0.45" stop-color="#5b5cf5"></stop><stop offset="1" stop-color="#2820a8"></stop>
    </radialGradient>
    <radialGradient id="bg2" cx="0.85" cy="0.85" r="0.7">
      <stop offset="0" stop-color="#7e3df0" stop-opacity="0.55"></stop><stop offset="1" stop-color="#7e3df0" stop-opacity="0"></stop>
    </radialGradient>
    <linearGradient id="bar" x1="0" y1="0" x2="1" y2="0">
      <stop offset="0" stop-color="#ffffff"></stop><stop offset="1" stop-color="#c5c8ff"></stop>
    </linearGradient>
    <filter id="glow" x="-50%" y="-50%" width="200%" height="200%">
      <feGaussianBlur in="SourceAlpha" stdDeviation="1.6"></feGaussianBlur>
      <feComponentTransfer><feFuncA type="linear" slope="0.7"></feFuncA></feComponentTransfer>
      <feMerge><feMergeNode></feMergeNode><feMergeNode in="SourceGraphic"></feMergeNode></feMerge>
    </filter>
  </defs>
  <g clip-path="url(#sq)">
    <rect width="100" height="100" fill="url(#bg)"></rect>
    <rect width="100" height="100" fill="url(#bg2)"></rect>
    <g filter="url(#glow)">
      <rect x="22" y="22" width="56" height="9" rx="2" fill="url(#bar)"></rect>
      <rect x="22" y="36" width="40" height="9" rx="2" fill="url(#bar)" opacity="0.96"></rect>
      <rect x="22" y="50" width="22" height="9" rx="2" fill="url(#bar)" opacity="0.92"></rect>
      <rect x="22" y="64" width="9" height="14" rx="2" fill="url(#bar)"></rect>
    </g>
  </g>
  <path d="M 22,0 L 78,0 C 95.6,0 100,4.4 100,22 L 100,78 C 100,95.6 95.6,100 78,100 L 22,100 C 4.4,100 0,95.6 0,78 L 0,22 C 0,4.4 4.4,0 22,0 Z" fill="none" stroke="rgba(255,255,255,0.22)" stroke-width="0.6"></path>
</svg>